<svg xmlns="http://www.w3.org/2000/svg" width="800" height="450" viewBox="0 0 800 450">
  <rect width="800" height="450" fill="#ffffff"/>
  <rect width="800" height="48" fill="#742774"/>
  <text x="20" y="30" font-family="Segoe UI, Arial" font-size="14" fill="white" font-weight="600">Copilot Studio - Knowledge</text>
  <text x="300" y="90" font-family="Segoe UI, Arial" font-size="16" fill="#333" font-weight="600">Knowledge Sources</text>
  <rect x="620" y="72" width="140" height="34" rx="6" fill="#742774"/>
  <text x="690" y="94" font-family="Segoe UI, Arial" font-size="13" fill="white" text-anchor="middle">+ Add knowledge</text>
  <rect x="40" y="120" width="720" height="100" rx="8" fill="#fff" stroke="#e0e0e0" stroke-width="1"/>
  <rect x="56" y="140" width="40" height="40" rx="6" fill="#036C70"/>
  <text x="76" y="165" font-family="Segoe UI, Arial" font-size="10" fill="white" text-anchor="middle">SP</text>
  <text x="112" y="155" font-family="Segoe UI, Arial" font-size="13" fill="#333" font-weight="600">SharePoint - Contoso Docs</text>
  <text x="112" y="175" font-family="Segoe UI, Arial" font-size="11" fill="#888">contoso.sharepoint.com/sites/docs</text>
  <rect x="660" y="148" width="72" height="24" rx="12" fill="#DFF6DD"/>
  <text x="696" y="165" font-family="Segoe UI, Arial" font-size="11" fill="#107C10" text-anchor="middle">Ready</text>
  <rect x="40" y="230" width="720" height="100" rx="8" fill="#fff" stroke="#e0e0e0" stroke-width="1"/>
  <rect x="56" y="250" width="40" height="40" rx="6" fill="#D83B01"/>
  <text x="76" y="275" font-family="Segoe UI, Arial" font-size="10" fill="white" text-anchor="middle">PDF</text>
  <text x="112" y="265" font-family="Segoe UI, Arial" font-size="13" fill="#333" font-weight="600">Contoso Return Policy.pdf</text>
  <text x="112" y="285" font-family="Segoe UI, Arial" font-size="11" fill="#888">Uploaded file - 2.4 MB</text>
  <rect x="660" y="258" width="72" height="24" rx="12" fill="#DFF6DD"/>
  <text x="696" y="275" font-family="Segoe UI, Arial" font-size="11" fill="#107C10" text-anchor="middle">Ready</text>
  <rect x="40" y="340" width="720" height="100" rx="8" fill="#fff" stroke="#e0e0e0" stroke-width="1"/>
  <rect x="56" y="360" width="40" height="40" rx="6" fill="#0078D4"/>
  <text x="76" y="385" font-family="Segoe UI, Arial" font-size="10" fill="white" text-anchor="middle">Web</text>
  <text x="112" y="375" font-family="Segoe UI, Arial" font-size="13" fill="#333" font-weight="600">Contoso Products Page</text>
  <text x="112" y="395" font-family="Segoe UI, Arial" font-size="11" fill="#888">https://contoso.com/products</text>
  <rect x="660" y="368" width="72" height="24" rx="12" fill="#DFF6DD"/>
  <text x="696" y="385" font-family="Segoe UI, Arial" font-size="11" fill="#107C10" text-anchor="middle">Ready</text>
</svg>