<svg xmlns="http://www.w3.org/2000/svg" width="800" height="400" viewBox="0 0 800 400">
  <rect width="800" height="400" fill="#ffffff"/>
  <rect width="800" height="48" fill="#742774"/>
  <text x="20" y="30" font-family="Segoe UI, Arial" font-size="14" fill="white" font-weight="600">Microsoft Copilot Studio</text>
  <rect x="0" y="48" width="220" height="352" fill="#f8f8f8" stroke="#e0e0e0" stroke-width="1"/>
  <text x="20" y="80" font-family="Segoe UI, Arial" font-size="13" fill="#333" font-weight="600">Agents</text>
  <rect x="10" y="95" width="200" height="44" rx="6" fill="#f0e6f0" stroke="#742774" stroke-width="1"/>
  <text x="50" y="112" font-family="Segoe UI, Arial" font-size="12" fill="#333" font-weight="600">Contoso Support Pro</text>
  <text x="50" y="128" font-family="Segoe UI, Arial" font-size="10" fill="#888">Active</text>
  <rect x="18" y="103" width="24" height="24" rx="4" fill="#6264A7"/>
  <text x="30" y="120" font-family="Segoe UI, Arial" font-size="12" fill="white" text-anchor="middle">C</text>
  <rect x="220" y="48" width="580" height="352" fill="#ffffff"/>
  <text x="510" y="90" font-family="Segoe UI, Arial" font-size="18" fill="#333" text-anchor="middle" font-weight="600">Contoso Support Pro</text>
  <rect x="260" y="120" width="120" height="32" rx="4" fill="#f0f0f0"/>
  <text x="320" y="141" font-family="Segoe UI, Arial" font-size="12" fill="#666" text-anchor="middle">Overview</text>
  <rect x="390" y="120" width="120" height="32" rx="4" fill="#742774"/>
  <text x="450" y="141" font-family="Segoe UI, Arial" font-size="12" fill="white" text-anchor="middle">Knowledge</text>
  <rect x="520" y="120" width="120" height="32" rx="4" fill="#f0f0f0"/>
  <text x="580" y="141" font-family="Segoe UI, Arial" font-size="12" fill="#666" text-anchor="middle">Topics</text>
  <rect x="650" y="120" width="120" height="32" rx="4" fill="#f0f0f0"/>
  <text x="710" y="141" font-family="Segoe UI, Arial" font-size="12" fill="#666" text-anchor="middle">Actions</text>
</svg>