<svg xmlns="http://www.w3.org/2000/svg" width="800" height="400" viewBox="0 0 800 400">
  <rect width="800" height="400" fill="#ffffff"/>
  <rect width="800" height="48" fill="#742774"/>
  <text x="20" y="30" font-family="Segoe UI, Arial" font-size="14" fill="white" font-weight="600">Copilot Studio - Actions</text>
  <text x="300" y="90" font-family="Segoe UI, Arial" font-size="16" fill="#333" font-weight="600">Actions</text>
  <rect x="620" y="72" width="140" height="34" rx="6" fill="#742774"/>
  <text x="690" y="94" font-family="Segoe UI, Arial" font-size="13" fill="white" text-anchor="middle">+ Add an action</text>
  <rect x="40" y="120" width="340" height="120" rx="8" fill="#fff" stroke="#e0e0e0" stroke-width="1"/>
  <rect x="56" y="140" width="40" height="40" rx="6" fill="#0066FF"/>
  <text x="76" y="165" font-family="Segoe UI, Arial" font-size="18" fill="white" text-anchor="middle">&#9889;</text>
  <text x="112" y="155" font-family="Segoe UI, Arial" font-size="13" fill="#333" font-weight="600">Power Automate Flow</text>
  <text x="112" y="175" font-family="Segoe UI, Arial" font-size="11" fill="#888">Run a cloud flow from your agent</text>
  <rect x="420" y="120" width="340" height="120" rx="8" fill="#fff" stroke="#e0e0e0" stroke-width="1"/>
  <rect x="436" y="140" width="40" height="40" rx="6" fill="#00BCF2"/>
  <text x="456" y="165" font-family="Segoe UI, Arial" font-size="18" fill="white" text-anchor="middle">&#128268;</text>
  <text x="492" y="155" font-family="Segoe UI, Arial" font-size="13" fill="#333" font-weight="600">Connector Action</text>
  <text x="492" y="175" font-family="Segoe UI, Arial" font-size="11" fill="#888">Use a prebuilt connector</text>
  <rect x="40" y="260" width="340" height="120" rx="8" fill="#fff" stroke="#e0e0e0" stroke-width="1"/>
  <rect x="56" y="280" width="40" height="40" rx="6" fill="#00A4EF"/>
  <text x="76" y="305" font-family="Segoe UI, Arial" font-size="18" fill="white" text-anchor="middle">&#128279;</text>
  <text x="112" y="295" font-family="Segoe UI, Arial" font-size="13" fill="#333" font-weight="600">Custom API</text>
  <text x="112" y="315" font-family="Segoe UI, Arial" font-size="11" fill="#888">Connect to an external API</text>
</svg>